{
  "asset": {
    "version": "2.0",
    "generator": "Arena 3D Human Generator"
  },
  "scene": 0,
  "scenes": [
    {
      "nodes": [
        0
      ]
    }
  ],
  "nodes": [
    {
      "mesh": 0,
      "name": "HumanCharacter"
    }
  ],
  "meshes": [
    {
      "name": "HumanMesh",
      "primitives": [
        {
          "attributes": {
            "POSITION": 0,
            "NORMAL": 1,
            "TEXCOORD_0": 2
          },
          "indices": 3,
          "material": 0
        }
      ]
    }
  ],
  "materials": [
    {
      "name": "HumanMaterial",
      "pbrMetallicRoughness": {
        "baseColorFactor": [
          0.85,
          0.72,
          0.62,
          1.0
        ],
        "metallicFactor": 0.1,
        "roughnessFactor": 0.6
      }
    }
  ],
  "buffers": [
    {
      "byteLength": 432320,
      "uri": "data:application/octet-stream;base64,"
    }
  ],
  "bufferViews": [
    {
      "buffer": 0,
      "byteOffset": 0,
      "byteLength": 148224,
      "target": 34962
    },
    {
      "buffer": 0,
      "byteOffset": 148224,
      "byteLength": 148224,
      "target": 34962
    },
    {
      "buffer": 0,
      "byteOffset": 296448,
      "byteLength": 98816,
      "target": 34962
    },
    {
      "buffer": 0,
      "byteOffset": 395264,
      "byteLength": 37056,
      "target": 34963
    }
  ],
  "accessors": [
    {
      "bufferView": 0,
      "byteOffset": 0,
      "componentType": 5126,
      "count": 12352,
      "type": "VEC3",
      "max": [
        32.7,
        176.0,
        14.0
      ],
      "min": [
        -32.7,
        0.0,
        -11.5
      ]
    },
    {
      "bufferView": 1,
      "byteOffset": 0,
      "componentType": 5126,
      "count": 12352,
      "type": "VEC3"
    },
    {
      "bufferView": 2,
      "byteOffset": 0,
      "componentType": 5126,
      "count": 12352,
      "type": "VEC2"
    },
    {
      "bufferView": 3,
      "byteOffset": 0,
      "componentType": 5123,
      "count": 18528,
      "type": "SCALAR"
    }
  ]
}